<svg xmlns="http://www.w3.org/2000/svg" version="1.1" xmlns:xlink="http://www.w3.org/1999/xlink" xmlns:svgjs="http://svgjs.com/svgjs" width="1440" height="560" preserveAspectRatio="none" viewBox="0 0 1440 560"><g mask="url(&quot;#SvgjsMask1002&quot;)" fill="none"><rect width="1440" height="560" x="0" y="0" fill="url(#SvgjsLinearGradient1003)"></rect><path d="M1440 0L1207.18 0L1440 277.25z" fill="rgba(255, 255, 255, .1)"></path><path d="M1207.18 0L1440 277.25L1440 285.48L735.99 0z" fill="rgba(255, 255, 255, .075)"></path><path d="M735.99 0L1440 285.48L1440 398.67L487.75 0z" fill="rgba(255, 255, 255, .05)"></path><path d="M487.75 0L1440 398.67L1440 426.56L334.13 0z" fill="rgba(255, 255, 255, .025)"></path><path d="M0 560L316.5 560L0 425.07z" fill="rgba(0, 0, 0, .1)"></path><path d="M0 425.07L316.5 560L938.54 560L0 401.15z" fill="rgba(0, 0, 0, .075)"></path><path d="M0 401.15L938.54 560L1243.85 560L0 177.51999999999998z" fill="rgba(0, 0, 0, .05)"></path><path d="M0 177.51999999999998L1243.85 560L1309.1499999999999 560L0 162.01999999999998z" fill="rgba(0, 0, 0, .025)"></path></g><defs><mask id="SvgjsMask1002"><rect width="1440" height="560" fill="#ffffff"></rect></mask><linearGradient x1="15.28%" y1="-39.29%" x2="84.72%" y2="139.29%" gradientUnits="userSpaceOnUse" id="SvgjsLinearGradient1003"><stop stop-color="#0e2a47" offset="0"></stop><stop stop-color="#00459e" offset="1"></stop></linearGradient></defs></svg>